<svg xmlns="http://www.w3.org/2000/svg" width="77" height="73" fill="none"><path fill="#83B3D3" d="M31.119 65.82h16.064v-23.8H31.119v23.8Zm2.911-20.9h10.14v18H34.03v-18Z"/><path fill="#83B3D3" d="m74.392 40.12 2.108-2.1-9.94-9.9V.82H52.604v13.6L38.95.82 1.5 38.02l2.108 2.1 7.832-7.8v37.6H7.424v2.9H71.58v-2.9h-5.12v-37.6l7.932 7.8Zm-10.844 29.8H14.351v-40.6L38.95 4.92l24.598 24.4v40.6Zm0-44.7-7.931-7.9V3.72h7.931v21.5Z"/><path fill="#83B3D3" d="M31.32 27.92c0 4.3 3.513 7.7 7.73 7.7 4.318 0 7.832-3.5 7.832-7.7 0-4.3-3.514-7.7-7.832-7.7-4.217 0-7.73 3.4-7.73 7.7Zm7.83-5c2.711 0 5.02 2.2 5.02 4.9s-2.208 4.9-5.02 4.9c-2.71 0-5.02-2.2-5.02-4.9s2.21-4.9 5.02-4.9ZM21.48 42.02h-3.012v3.9h3.012v-3.9ZM27.404 42.02h-3.012v3.9h3.012v-3.9ZM21.48 48.02h-3.012v3.9h3.012v-3.9ZM27.404 48.02h-3.012v3.9h3.012v-3.9ZM53.508 42.02h-3.012v3.9h3.012v-3.9ZM59.432 42.02H56.42v3.9h3.012v-3.9ZM53.508 48.02h-3.012v3.9h3.012v-3.9ZM59.432 48.02H56.42v3.9h3.012v-3.9Z"/></svg>